<mxfile host="Electron" modified="2023-08-12T02:00:19.482Z" agent="Mozilla/5.0 (X11; Linux x86_64) AppleWebKit/537.36 (KHTML, like Gecko) draw.io/21.6.8 Chrome/114.0.5735.289 Electron/25.5.0 Safari/537.36" etag="ZM1KuJqYy37WxVkdhidC" version="21.6.8" type="device">
  <diagram name="Page-1" id="0K9R-j6nXtsRtQzF9dDN">
    <mxGraphModel dx="928" dy="856" grid="1" gridSize="10" guides="1" tooltips="1" connect="1" arrows="1" fold="1" page="1" pageScale="1" pageWidth="827" pageHeight="1169" math="0" shadow="0">
      <root>
        <mxCell id="0" />
        <mxCell id="1" parent="0" />
        <mxCell id="DqSnmGuMtOkyiamzrbtm-21" value="" style="rounded=0;whiteSpace=wrap;html=1;dashed=1;" vertex="1" parent="1">
          <mxGeometry x="130" y="179" width="370" height="301" as="geometry" />
        </mxCell>
        <mxCell id="DqSnmGuMtOkyiamzrbtm-2" value="Auth Service" style="sketch=0;html=1;dashed=0;whitespace=wrap;fillColor=#2875E2;strokeColor=#ffffff;points=[[0.005,0.63,0],[0.1,0.2,0],[0.9,0.2,0],[0.5,0,0],[0.995,0.63,0],[0.72,0.99,0],[0.5,1,0],[0.28,0.99,0]];verticalLabelPosition=bottom;align=center;verticalAlign=top;shape=mxgraph.kubernetes.icon;prIcon=pod" vertex="1" parent="1">
          <mxGeometry x="170" y="190" width="50" height="48" as="geometry" />
        </mxCell>
        <mxCell id="DqSnmGuMtOkyiamzrbtm-14" style="edgeStyle=orthogonalEdgeStyle;rounded=0;orthogonalLoop=1;jettySize=auto;html=1;entryX=0.5;entryY=1;entryDx=0;entryDy=0;exitX=0.005;exitY=0.63;exitDx=0;exitDy=0;exitPerimeter=0;" edge="1" parent="1" source="DqSnmGuMtOkyiamzrbtm-3" target="DqSnmGuMtOkyiamzrbtm-7">
          <mxGeometry relative="1" as="geometry" />
        </mxCell>
        <mxCell id="DqSnmGuMtOkyiamzrbtm-3" value="Notification&lt;br&gt;Service" style="sketch=0;html=1;dashed=0;whitespace=wrap;fillColor=#2875E2;strokeColor=#ffffff;points=[[0.005,0.63,0],[0.1,0.2,0],[0.9,0.2,0],[0.5,0,0],[0.995,0.63,0],[0.72,0.99,0],[0.5,1,0],[0.28,0.99,0]];verticalLabelPosition=bottom;align=center;verticalAlign=top;shape=mxgraph.kubernetes.icon;prIcon=pod" vertex="1" parent="1">
          <mxGeometry x="173.5" y="390" width="50" height="48" as="geometry" />
        </mxCell>
        <mxCell id="DqSnmGuMtOkyiamzrbtm-4" value="Video to MP3&lt;br&gt;Service" style="sketch=0;html=1;dashed=0;whitespace=wrap;fillColor=#2875E2;strokeColor=#ffffff;points=[[0.005,0.63,0],[0.1,0.2,0],[0.9,0.2,0],[0.5,0,0],[0.995,0.63,0],[0.72,0.99,0],[0.5,1,0],[0.28,0.99,0]];verticalLabelPosition=bottom;align=center;verticalAlign=top;shape=mxgraph.kubernetes.icon;prIcon=pod" vertex="1" parent="1">
          <mxGeometry x="430" y="190" width="50" height="48" as="geometry" />
        </mxCell>
        <mxCell id="DqSnmGuMtOkyiamzrbtm-5" value="" style="strokeColor=#001DBC;shadow=1;strokeWidth=1;rounded=1;absoluteArcSize=1;arcSize=2;fillColor=#0050ef;fontColor=#ffffff;gradientColor=none;" vertex="1" parent="1">
          <mxGeometry x="280" y="293" width="90" height="44" as="geometry" />
        </mxCell>
        <mxCell id="DqSnmGuMtOkyiamzrbtm-6" value="Task&#xa;Queues" style="sketch=0;dashed=0;connectable=0;html=1;fillColor=#757575;strokeColor=none;shape=mxgraph.gcp2.task_queues;part=1;labelPosition=right;verticalLabelPosition=middle;align=left;verticalAlign=middle;spacingLeft=5;fontSize=12;" vertex="1" parent="DqSnmGuMtOkyiamzrbtm-5">
          <mxGeometry y="0.5" width="32" height="32" relative="1" as="geometry">
            <mxPoint x="5" y="-16" as="offset" />
          </mxGeometry>
        </mxCell>
        <mxCell id="DqSnmGuMtOkyiamzrbtm-12" style="edgeStyle=orthogonalEdgeStyle;rounded=0;orthogonalLoop=1;jettySize=auto;html=1;entryX=0;entryY=0.5;entryDx=0;entryDy=0;entryPerimeter=0;" edge="1" parent="1" source="DqSnmGuMtOkyiamzrbtm-7" target="DqSnmGuMtOkyiamzrbtm-23">
          <mxGeometry relative="1" as="geometry">
            <mxPoint x="171" y="315" as="targetPoint" />
          </mxGeometry>
        </mxCell>
        <mxCell id="DqSnmGuMtOkyiamzrbtm-7" value="Client" style="image;aspect=fixed;perimeter=ellipsePerimeter;html=1;align=center;shadow=0;dashed=0;spacingTop=3;image=img/lib/active_directory/mac_client.svg;" vertex="1" parent="1">
          <mxGeometry x="30" y="290" width="47" height="50" as="geometry" />
        </mxCell>
        <mxCell id="DqSnmGuMtOkyiamzrbtm-13" style="edgeStyle=orthogonalEdgeStyle;rounded=0;orthogonalLoop=1;jettySize=auto;html=1;exitX=0.5;exitY=0;exitDx=0;exitDy=0;exitPerimeter=0;entryX=0.5;entryY=1;entryDx=0;entryDy=0;entryPerimeter=0;" edge="1" parent="1" target="DqSnmGuMtOkyiamzrbtm-2">
          <mxGeometry relative="1" as="geometry">
            <mxPoint x="195" y="291" as="sourcePoint" />
          </mxGeometry>
        </mxCell>
        <mxCell id="DqSnmGuMtOkyiamzrbtm-17" style="edgeStyle=orthogonalEdgeStyle;rounded=0;orthogonalLoop=1;jettySize=auto;html=1;exitX=1;exitY=0.5;exitDx=0;exitDy=0;exitPerimeter=0;" edge="1" parent="1" source="DqSnmGuMtOkyiamzrbtm-23" target="DqSnmGuMtOkyiamzrbtm-5">
          <mxGeometry relative="1" as="geometry">
            <mxPoint x="219" y="315" as="sourcePoint" />
          </mxGeometry>
        </mxCell>
        <mxCell id="DqSnmGuMtOkyiamzrbtm-10" value="Auth DB" style="image;aspect=fixed;perimeter=ellipsePerimeter;html=1;align=center;shadow=0;dashed=0;spacingTop=3;image=img/lib/active_directory/databases.svg;" vertex="1" parent="1">
          <mxGeometry x="540" y="190" width="50" height="49" as="geometry" />
        </mxCell>
        <mxCell id="DqSnmGuMtOkyiamzrbtm-11" value="Storage DB" style="image;aspect=fixed;perimeter=ellipsePerimeter;html=1;align=center;shadow=0;dashed=0;spacingTop=3;image=img/lib/active_directory/databases.svg;" vertex="1" parent="1">
          <mxGeometry x="540" y="310" width="50" height="49" as="geometry" />
        </mxCell>
        <mxCell id="DqSnmGuMtOkyiamzrbtm-19" value="" style="endArrow=classic;startArrow=classic;html=1;rounded=0;entryX=0.5;entryY=1;entryDx=0;entryDy=0;exitX=0.995;exitY=0.63;exitDx=0;exitDy=0;exitPerimeter=0;" edge="1" parent="1" source="DqSnmGuMtOkyiamzrbtm-3" target="DqSnmGuMtOkyiamzrbtm-5">
          <mxGeometry width="50" height="50" relative="1" as="geometry">
            <mxPoint x="290" y="450" as="sourcePoint" />
            <mxPoint x="340" y="400" as="targetPoint" />
            <Array as="points">
              <mxPoint x="325" y="420" />
            </Array>
          </mxGeometry>
        </mxCell>
        <mxCell id="DqSnmGuMtOkyiamzrbtm-20" value="" style="endArrow=classic;startArrow=classic;html=1;rounded=0;entryX=0.5;entryY=1;entryDx=0;entryDy=0;exitX=1;exitY=0.5;exitDx=0;exitDy=0;entryPerimeter=0;" edge="1" parent="1" source="DqSnmGuMtOkyiamzrbtm-5" target="DqSnmGuMtOkyiamzrbtm-4">
          <mxGeometry width="50" height="50" relative="1" as="geometry">
            <mxPoint x="420" y="473" as="sourcePoint" />
            <mxPoint x="525" y="390" as="targetPoint" />
            <Array as="points">
              <mxPoint x="455" y="315" />
            </Array>
          </mxGeometry>
        </mxCell>
        <mxCell id="DqSnmGuMtOkyiamzrbtm-22" value="Kubernetes" style="sketch=0;html=1;dashed=0;whitespace=wrap;fillColor=#2875E2;strokeColor=#ffffff;points=[[0.005,0.63,0],[0.1,0.2,0],[0.9,0.2,0],[0.5,0,0],[0.995,0.63,0],[0.72,0.99,0],[0.5,1,0],[0.28,0.99,0]];verticalLabelPosition=bottom;align=center;verticalAlign=top;shape=mxgraph.kubernetes.icon;prIcon=api" vertex="1" parent="1">
          <mxGeometry x="130" y="110" width="50" height="48" as="geometry" />
        </mxCell>
        <mxCell id="DqSnmGuMtOkyiamzrbtm-23" value="&lt;font color=&quot;#ffffff&quot;&gt;API Gateway&lt;/font&gt;" style="sketch=0;points=[[0,0,0],[0.25,0,0],[0.5,0,0],[0.75,0,0],[1,0,0],[0,1,0],[0.25,1,0],[0.5,1,0],[0.75,1,0],[1,1,0],[0,0.25,0],[0,0.5,0],[0,0.75,0],[1,0.25,0],[1,0.5,0],[1,0.75,0]];outlineConnect=0;fontColor=#232F3E;gradientColor=#FF4F8B;gradientDirection=north;fillColor=#BC1356;strokeColor=#ffffff;dashed=0;verticalLabelPosition=bottom;verticalAlign=top;align=center;html=1;fontSize=12;fontStyle=0;aspect=fixed;shape=mxgraph.aws4.resourceIcon;resIcon=mxgraph.aws4.api_gateway;" vertex="1" parent="1">
          <mxGeometry x="170" y="286.5" width="57" height="57" as="geometry" />
        </mxCell>
      </root>
    </mxGraphModel>
  </diagram>
</mxfile>
